<svg width="151" height="49" viewBox="0 0 151 49" fill="none" xmlns="http://www.w3.org/2000/svg">
<path opacity="0.9" d="M143.682 0.491211H7.39669C3.6096 0.491211 0.539551 3.56126 0.539551 7.34835V41.6341C0.539551 45.4212 3.6096 48.4912 7.39669 48.4912H143.682C147.469 48.4912 150.54 45.4212 150.54 41.6341V7.34835C150.54 3.56126 147.469 0.491211 143.682 0.491211Z" fill="black" fill-opacity="0.95"/>
<path d="M41.0881 25.7308C41.0602 22.7063 43.628 21.2349 43.7454 21.1664C42.2911 19.0991 40.0371 18.8167 39.245 18.7942C37.3518 18.5999 35.5154 19.8986 34.5511 19.8986C33.5674 19.8986 32.0823 18.8129 30.4818 18.8448C28.4221 18.8758 26.4953 20.0385 25.4385 21.8439C23.2576 25.5253 24.8841 30.9351 26.9736 33.9108C28.0188 35.3681 29.2402 36.9953 30.8388 36.9381C32.4028 36.8752 32.9871 35.9659 34.8744 35.9659C36.7445 35.9659 37.2931 36.9381 38.9235 36.9015C40.602 36.8752 41.6588 35.4376 42.6675 33.9671C43.8753 32.2967 44.3604 30.6517 44.3797 30.5673C44.3402 30.5541 41.1198 29.3558 41.0881 25.7308Z" fill="white"/>
<path d="M38.0082 16.8372C38.8494 15.8115 39.4249 14.4161 39.2652 13C38.0477 13.0526 36.5251 13.8211 35.6483 14.8243C34.8725 15.7083 34.1795 17.1571 34.3586 18.5197C35.7262 18.6192 37.1304 17.8469 38.0082 16.8372Z" fill="white"/>
<path d="M62.6893 37.5515L61.6429 34.7443H56.3938L55.3473 37.5515H53.3872L57.922 25.9238H60.1645L64.6993 37.5515H62.6893ZM57.0416 33.0333H60.995L59.0183 27.7178L57.0416 33.0333Z" fill="white"/>
<path d="M74.2518 33.1998C74.2518 34.5176 73.8974 35.5862 73.1887 36.4057C72.4799 37.2141 71.5608 37.6183 70.4312 37.6183C69.1799 37.6183 68.2773 37.1698 67.7236 36.2728V40.7411H65.9629V29.0802H67.6738V30.6084C68.2607 29.4789 69.2463 28.9141 70.6306 28.9141C71.7158 28.9141 72.5907 29.3072 73.2551 30.0935C73.9196 30.8798 74.2518 31.9152 74.2518 33.1998ZM71.8266 35.326C72.2695 34.8055 72.491 34.1244 72.491 33.2828C72.491 32.4412 72.2695 31.7657 71.8266 31.2563C71.3947 30.7469 70.8133 30.4922 70.0824 30.4922C69.3515 30.4922 68.7646 30.7469 68.3216 31.2563C67.8787 31.7657 67.6572 32.4412 67.6572 33.2828C67.6572 34.1355 67.8731 34.8166 68.305 35.326C68.748 35.8354 69.3405 36.0901 70.0824 36.0901C70.8022 36.0901 71.3836 35.8354 71.8266 35.326Z" fill="white"/>
<path d="M84.0503 33.1998C84.0503 34.5176 83.6959 35.5862 82.9872 36.4057C82.2785 37.2141 81.3593 37.6183 80.2298 37.6183C78.9784 37.6183 78.0759 37.1698 77.5222 36.2728V40.7411H75.7614V29.0802H77.4724V30.6084C78.0593 29.4789 79.0449 28.9141 80.4291 28.9141C81.5144 28.9141 82.3891 29.3072 83.0536 30.0935C83.718 30.8798 84.0503 31.9152 84.0503 33.1998ZM81.6251 35.326C82.0681 34.8055 82.2896 34.1244 82.2896 33.2828C82.2896 32.4412 82.0681 31.7657 81.6251 31.2563C81.1932 30.7469 80.6118 30.4922 79.881 30.4922C79.1501 30.4922 78.5631 30.7469 78.1202 31.2563C77.6772 31.7657 77.4557 32.4412 77.4557 33.2828C77.4557 34.1355 77.6717 34.8166 78.1036 35.326C78.5465 35.8354 79.139 36.0901 79.881 36.0901C80.6008 36.0901 81.1822 35.8354 81.6251 35.326Z" fill="white"/>
<path d="M93.2685 37.8506C91.8732 37.8506 90.7271 37.4686 89.8301 36.7045C88.9441 35.9404 88.5012 34.9382 88.5012 33.6979H90.345C90.4004 34.5063 90.6938 35.143 91.2254 35.6081C91.7569 36.0733 92.4546 36.3058 93.3184 36.3058C94.0382 36.3058 94.603 36.1508 95.0127 35.8407C95.4224 35.5196 95.6273 35.0877 95.6273 34.545C95.6273 34.1575 95.5166 33.8418 95.2951 33.5982C95.0847 33.3767 94.8244 33.2051 94.5144 33.0833C94.2154 32.9615 93.7613 32.8286 93.1523 32.6846L92.7038 32.5683C91.8621 32.3579 91.2088 32.1531 90.7437 31.9537C89.4702 31.4111 88.8334 30.4643 88.8334 29.1132C88.8334 28.0612 89.2099 27.2251 89.963 26.605C90.716 25.9738 91.7182 25.6582 92.9695 25.6582C94.232 25.6582 95.2674 25.9738 96.0758 26.605C96.8842 27.2362 97.2884 28.0668 97.2884 29.0966H95.3948C95.3615 28.4986 95.129 28.0446 94.6971 27.7345C94.2652 27.4134 93.6672 27.2528 92.9031 27.2528C92.1944 27.2528 91.6351 27.4023 91.2254 27.7013C90.8267 28.0003 90.6274 28.4156 90.6274 28.9471C90.6274 29.5119 90.8378 29.9383 91.2586 30.2262C91.6905 30.503 92.3716 30.7467 93.3018 30.9571C94.1545 31.1343 94.8411 31.317 95.3615 31.5052C95.882 31.6935 96.3637 32.0146 96.8067 32.4687C97.2497 32.9116 97.4711 33.5484 97.4711 34.3789C97.4711 35.4199 97.0835 36.2615 96.3084 36.9038C95.5443 37.535 94.531 37.8506 93.2685 37.8506Z" fill="white"/>
<path d="M103.31 36.0395V37.5511H102.13C101.2 37.5511 100.547 37.3573 100.17 36.9698C99.7936 36.5711 99.6054 35.879 99.6054 34.8934V30.6077H97.9941V29.0795H99.6054V27.0364L101.366 26.5713V29.0795H103.11V30.6077H101.366V34.9598C101.366 35.6796 101.732 36.0395 102.462 36.0395H103.31Z" fill="white"/>
<path d="M112.379 33.3326C112.379 34.6726 112.008 35.7412 111.266 36.5386C110.524 37.3359 109.511 37.7346 108.226 37.7346C106.942 37.7346 105.928 37.3359 105.186 36.5386C104.444 35.7412 104.073 34.6726 104.073 33.3326C104.073 32.0038 104.45 30.9351 105.203 30.1267C105.956 29.3183 106.964 28.9141 108.226 28.9141C109.489 28.9141 110.496 29.3183 111.249 30.1267C112.002 30.9351 112.379 32.0038 112.379 33.3326ZM106.449 31.2729C106.039 31.7712 105.834 32.4578 105.834 33.3326C105.834 34.2075 106.045 34.8941 106.465 35.3924C106.897 35.8907 107.495 36.1399 108.259 36.1399C109.012 36.1399 109.594 35.8907 110.003 35.3924C110.413 34.8941 110.618 34.2075 110.618 33.3326C110.618 32.4578 110.402 31.7712 109.97 31.2729C109.549 30.7635 108.963 30.5088 108.209 30.5088C107.456 30.5088 106.87 30.7635 106.449 31.2729Z" fill="white"/>
<path d="M118.47 28.9971V30.6914H118.138C116.477 30.6914 115.646 31.5718 115.646 33.3325V37.5517H113.886V29.0801H115.63V30.4256C116.062 29.4733 116.848 28.9971 117.988 28.9971H118.47Z" fill="white"/>
<path d="M126.676 33.0835V33.8144H120.497C120.497 34.5785 120.719 35.182 121.162 35.625C121.604 36.0568 122.208 36.2728 122.972 36.2728C124.024 36.2728 124.716 35.8686 125.049 35.0602H126.593C126.383 35.8686 125.94 36.5164 125.264 37.0037C124.6 37.4909 123.792 37.7346 122.839 37.7346C121.632 37.7346 120.663 37.3414 119.932 36.5552C119.213 35.7578 118.853 34.7003 118.853 33.3825C118.853 32.0425 119.224 30.9628 119.966 30.1433C120.719 29.3239 121.699 28.9141 122.906 28.9141C124.046 28.9141 124.96 29.2962 125.647 30.0603C126.333 30.8133 126.676 31.821 126.676 33.0835ZM124.434 30.9573C124.057 30.5697 123.537 30.3759 122.872 30.3759C122.208 30.3759 121.66 30.5697 121.228 30.9573C120.807 31.3449 120.569 31.8709 120.514 32.5353H124.999C124.999 31.8709 124.81 31.3449 124.434 30.9573Z" fill="white"/>
<g opacity="0.7">
<path d="M56.1535 19.0003H53.7991V11.7275H56.228C56.9406 11.7275 57.5526 11.8731 58.064 12.1643C58.5754 12.4532 58.9672 12.8686 59.2394 13.4108C59.514 13.9506 59.6513 14.598 59.6513 15.3532C59.6513 16.1108 59.5129 16.7619 59.2359 17.3064C58.9612 17.8509 58.5635 18.2699 58.0427 18.5635C57.5218 18.8547 56.8921 19.0003 56.1535 19.0003ZM54.8964 18.0415H56.0931C56.6471 18.0415 57.1075 17.9373 57.4745 17.729C57.8414 17.5183 58.1161 17.214 58.2984 16.8163C58.4807 16.4162 58.5718 15.9285 58.5718 15.3532C58.5718 14.7827 58.4807 14.2986 58.2984 13.9008C58.1184 13.5031 57.8497 13.2013 57.4923 12.9953C57.1348 12.7893 56.6909 12.6863 56.1606 12.6863H54.8964V18.0415Z" fill="white"/>
<path d="M63.2282 19.1104C62.7169 19.1104 62.2706 18.9932 61.8894 18.7588C61.5083 18.5244 61.2124 18.1965 61.0017 17.7751C60.791 17.3537 60.6856 16.8613 60.6856 16.2979C60.6856 15.732 60.791 15.2372 61.0017 14.8135C61.2124 14.3897 61.5083 14.0606 61.8894 13.8263C62.2706 13.5919 62.7169 13.4747 63.2282 13.4747C63.7396 13.4747 64.1859 13.5919 64.567 13.8263C64.9482 14.0606 65.2441 14.3897 65.4548 14.8135C65.6655 15.2372 65.7708 15.732 65.7708 16.2979C65.7708 16.8613 65.6655 17.3537 65.4548 17.7751C65.2441 18.1965 64.9482 18.5244 64.567 18.7588C64.1859 18.9932 63.7396 19.1104 63.2282 19.1104ZM63.2318 18.219C63.5632 18.219 63.8378 18.1314 64.0556 17.9562C64.2734 17.781 64.4344 17.5479 64.5386 17.2567C64.6451 16.9655 64.6984 16.6447 64.6984 16.2943C64.6984 15.9463 64.6451 15.6267 64.5386 15.3355C64.4344 15.0419 64.2734 14.8064 64.0556 14.6288C63.8378 14.4513 63.5632 14.3625 63.2318 14.3625C62.898 14.3625 62.621 14.4513 62.4008 14.6288C62.183 14.8064 62.0208 15.0419 61.9143 15.3355C61.8101 15.6267 61.7581 15.9463 61.7581 16.2943C61.7581 16.6447 61.8101 16.9655 61.9143 17.2567C62.0208 17.5479 62.183 17.781 62.4008 17.9562C62.621 18.1314 62.898 18.219 63.2318 18.219Z" fill="white"/>
<path d="M67.9725 19.0003L66.3674 13.5457H67.4647L68.5336 17.5514H68.5869L69.6593 13.5457H70.7566L71.822 17.5336H71.8752L72.937 13.5457H74.0343L72.4328 19.0003H71.3497L70.2417 15.0621H70.16L69.0521 19.0003H67.9725Z" fill="white"/>
<path d="M76.1038 15.7616V19.0003H75.042V13.5457H76.0611V14.4335H76.1286C76.2541 14.1447 76.4506 13.9127 76.7181 13.7375C76.988 13.5623 77.3277 13.4747 77.7373 13.4747C78.109 13.4747 78.4345 13.5528 78.7138 13.7091C78.9932 13.863 79.2098 14.0926 79.3637 14.398C79.5176 14.7034 79.5945 15.081 79.5945 15.5308V19.0003H78.5327V15.6586C78.5327 15.2633 78.4298 14.9543 78.2238 14.7318C78.0178 14.5069 77.7349 14.3944 77.3751 14.3944C77.1289 14.3944 76.9099 14.4477 76.7181 14.5542C76.5287 14.6608 76.3784 14.817 76.2671 15.023C76.1582 15.2266 76.1038 15.4728 76.1038 15.7616Z" fill="white"/>
<path d="M82.0803 11.7275V19.0003H81.0185V11.7275H82.0803Z" fill="white"/>
<path d="M85.8064 19.1104C85.295 19.1104 84.8487 18.9932 84.4676 18.7588C84.0864 18.5244 83.7905 18.1965 83.5798 17.7751C83.3691 17.3537 83.2637 16.8613 83.2637 16.2979C83.2637 15.732 83.3691 15.2372 83.5798 14.8135C83.7905 14.3897 84.0864 14.0606 84.4676 13.8263C84.8487 13.5919 85.295 13.4747 85.8064 13.4747C86.3177 13.4747 86.764 13.5919 87.1451 13.8263C87.5263 14.0606 87.8222 14.3897 88.0329 14.8135C88.2436 15.2372 88.349 15.732 88.349 16.2979C88.349 16.8613 88.2436 17.3537 88.0329 17.7751C87.8222 18.1965 87.5263 18.5244 87.1451 18.7588C86.764 18.9932 86.3177 19.1104 85.8064 19.1104ZM85.8099 18.219C86.1413 18.219 86.416 18.1314 86.6338 17.9562C86.8516 17.781 87.0126 17.5479 87.1167 17.2567C87.2233 16.9655 87.2765 16.6447 87.2765 16.2943C87.2765 15.9463 87.2233 15.6267 87.1167 15.3355C87.0126 15.0419 86.8516 14.8064 86.6338 14.6288C86.416 14.4513 86.1413 14.3625 85.8099 14.3625C85.4761 14.3625 85.1991 14.4513 84.9789 14.6288C84.7611 14.8064 84.599 15.0419 84.4924 15.3355C84.3883 15.6267 84.3362 15.9463 84.3362 16.2943C84.3362 16.6447 84.3883 16.9655 84.4924 17.2567C84.599 17.5479 84.7611 17.781 84.9789 17.9562C85.1991 18.1314 85.4761 18.219 85.8099 18.219Z" fill="white"/>
<path d="M91.1215 19.121C90.7759 19.121 90.4634 19.0571 90.184 18.9292C89.9047 18.799 89.6833 18.6108 89.52 18.3646C89.359 18.1184 89.2785 17.8166 89.2785 17.4591C89.2785 17.1513 89.3377 16.898 89.456 16.6991C89.5744 16.5003 89.7342 16.3428 89.9354 16.2268C90.1367 16.1108 90.3616 16.0232 90.6101 15.964C90.8587 15.9049 91.112 15.8599 91.3701 15.8291C91.6968 15.7912 91.9619 15.7604 92.1655 15.7368C92.3691 15.7107 92.5171 15.6693 92.6094 15.6125C92.7018 15.5557 92.7479 15.4633 92.7479 15.3355V15.3106C92.7479 15.0005 92.6603 14.7602 92.4851 14.5898C92.3123 14.4193 92.0543 14.3341 91.711 14.3341C91.3535 14.3341 91.0718 14.4134 90.8658 14.572C90.6622 14.7282 90.5214 14.9023 90.4432 15.094L89.4454 14.8667C89.5637 14.5353 89.7366 14.2678 89.9638 14.0642C90.1935 13.8582 90.4574 13.7091 90.7557 13.6167C91.054 13.522 91.3677 13.4747 91.6968 13.4747C91.9146 13.4747 92.1454 13.5007 92.3893 13.5528C92.6355 13.6025 92.8651 13.6949 93.0782 13.8298C93.2936 13.9648 93.47 14.1577 93.6073 14.4086C93.7446 14.6572 93.8133 14.9804 93.8133 15.3781V19.0003H92.7763V18.2545H92.7337C92.6651 18.3918 92.5621 18.5268 92.4248 18.6594C92.2875 18.7919 92.1111 18.902 91.8957 18.9896C91.6802 19.0772 91.4222 19.121 91.1215 19.121ZM91.3523 18.2687C91.6459 18.2687 91.8968 18.2107 92.1052 18.0947C92.3159 17.9787 92.4757 17.8272 92.5846 17.6402C92.6959 17.4508 92.7515 17.2484 92.7515 17.0329V16.3298C92.7136 16.3677 92.6402 16.4032 92.5313 16.4363C92.4248 16.4671 92.3029 16.4943 92.1655 16.518C92.0282 16.5393 91.8945 16.5595 91.7643 16.5784C91.6341 16.595 91.5252 16.6092 91.4376 16.621C91.2316 16.647 91.0434 16.6908 90.8729 16.7524C90.7048 16.814 90.5699 16.9027 90.4681 17.0187C90.3687 17.1324 90.319 17.2839 90.319 17.4733C90.319 17.7361 90.416 17.9349 90.6101 18.0699C90.8043 18.2024 91.0517 18.2687 91.3523 18.2687Z" fill="white"/>
<path d="M97.2694 19.1068C96.8291 19.1068 96.4361 18.9943 96.0904 18.7694C95.7472 18.5422 95.4773 18.219 95.2808 17.8C95.0867 17.3786 94.9896 16.8731 94.9896 16.2836C94.9896 15.6942 95.0878 15.1899 95.2843 14.7709C95.4832 14.3518 95.7554 14.031 96.1011 13.8085C96.4467 13.586 96.8385 13.4747 97.2765 13.4747C97.6151 13.4747 97.8873 13.5315 98.0933 13.6452C98.3016 13.7564 98.4626 13.8866 98.5762 14.0358C98.6922 14.1849 98.7822 14.3163 98.8461 14.43H98.91V11.7275H99.9718V19.0003H98.9349V18.1515H98.8461C98.7822 18.2675 98.6899 18.4001 98.5691 18.5493C98.4508 18.6984 98.2874 18.8286 98.0791 18.9399C97.8707 19.0512 97.6009 19.1068 97.2694 19.1068ZM97.5038 18.2013C97.8092 18.2013 98.0672 18.1208 98.2779 17.9598C98.491 17.7964 98.652 17.5703 98.7609 17.2815C98.8722 16.9927 98.9278 16.6565 98.9278 16.273C98.9278 15.8942 98.8733 15.5628 98.7644 15.2787C98.6555 14.9946 98.4957 14.7732 98.285 14.6146C98.0743 14.456 97.8139 14.3767 97.5038 14.3767C97.1842 14.3767 96.9179 14.4595 96.7048 14.6253C96.4917 14.791 96.3307 15.0171 96.2218 15.3035C96.1153 15.59 96.062 15.9131 96.062 16.273C96.062 16.6376 96.1165 16.9655 96.2254 17.2567C96.3343 17.5479 96.4953 17.7787 96.7083 17.9491C96.9238 18.1172 97.1889 18.2013 97.5038 18.2013Z" fill="white"/>
<path d="M106.431 19.1104C105.92 19.1104 105.474 18.9932 105.093 18.7588C104.711 18.5244 104.415 18.1965 104.205 17.7751C103.994 17.3537 103.889 16.8613 103.889 16.2979C103.889 15.732 103.994 15.2372 104.205 14.8135C104.415 14.3897 104.711 14.0606 105.093 13.8263C105.474 13.5919 105.92 13.4747 106.431 13.4747C106.943 13.4747 107.389 13.5919 107.77 13.8263C108.151 14.0606 108.447 14.3897 108.658 14.8135C108.869 15.2372 108.974 15.732 108.974 16.2979C108.974 16.8613 108.869 17.3537 108.658 17.7751C108.447 18.1965 108.151 18.5244 107.77 18.7588C107.389 18.9932 106.943 19.1104 106.431 19.1104ZM106.435 18.219C106.766 18.219 107.041 18.1314 107.259 17.9562C107.477 17.781 107.638 17.5479 107.742 17.2567C107.848 16.9655 107.902 16.6447 107.902 16.2943C107.902 15.9463 107.848 15.6267 107.742 15.3355C107.638 15.0419 107.477 14.8064 107.259 14.6288C107.041 14.4513 106.766 14.3625 106.435 14.3625C106.101 14.3625 105.824 14.4513 105.604 14.6288C105.386 14.8064 105.224 15.0419 105.117 15.3355C105.013 15.6267 104.961 15.9463 104.961 16.2943C104.961 16.6447 105.013 16.9655 105.117 17.2567C105.224 17.5479 105.386 17.781 105.604 17.9562C105.824 18.1314 106.101 18.219 106.435 18.219Z" fill="white"/>
<path d="M111.221 15.7616V19.0003H110.159V13.5457H111.178V14.4335H111.246C111.371 14.1447 111.568 13.9127 111.835 13.7375C112.105 13.5623 112.445 13.4747 112.854 13.4747C113.226 13.4747 113.552 13.5528 113.831 13.7091C114.11 13.863 114.327 14.0926 114.481 14.398C114.635 14.7034 114.712 15.081 114.712 15.5308V19.0003H113.65V15.6586C113.65 15.2633 113.547 14.9543 113.341 14.7318C113.135 14.5069 112.852 14.3944 112.492 14.3944C112.246 14.3944 112.027 14.4477 111.835 14.5542C111.646 14.6608 111.496 14.817 111.384 15.023C111.275 15.2266 111.221 15.4728 111.221 15.7616Z" fill="white"/>
<path d="M121.328 13.5457V14.398H118.349V13.5457H121.328ZM119.148 12.2389H120.21V17.3987C120.21 17.6047 120.241 17.7597 120.302 17.8639C120.364 17.9657 120.443 18.0355 120.54 18.0734C120.639 18.1089 120.747 18.1267 120.863 18.1267C120.948 18.1267 121.023 18.1208 121.087 18.1089C121.151 18.0971 121.201 18.0876 121.236 18.0805L121.428 18.9577C121.366 18.9813 121.279 19.005 121.165 19.0287C121.051 19.0547 120.909 19.0689 120.739 19.0713C120.46 19.076 120.199 19.0263 119.958 18.9221C119.716 18.818 119.521 18.657 119.372 18.4392C119.223 18.2214 119.148 17.9479 119.148 17.6189V12.2389Z" fill="white"/>
<path d="M123.682 15.7616V19.0003H122.62V11.7275H123.668V14.4335H123.735C123.863 14.1399 124.058 13.9068 124.321 13.7339C124.584 13.5611 124.927 13.4747 125.351 13.4747C125.725 13.4747 126.052 13.5516 126.331 13.7055C126.613 13.8594 126.831 14.089 126.984 14.3944C127.141 14.6975 127.219 15.0763 127.219 15.5308V19.0003H126.157V15.6586C126.157 15.2586 126.054 14.9484 125.848 14.7282C125.642 14.5057 125.356 14.3944 124.989 14.3944C124.738 14.3944 124.513 14.4477 124.314 14.5542C124.117 14.6608 123.962 14.817 123.849 15.023C123.738 15.2266 123.682 15.4728 123.682 15.7616Z" fill="white"/>
<path d="M130.987 19.1104C130.449 19.1104 129.986 18.9955 129.598 18.7659C129.212 18.5339 128.914 18.2084 128.703 17.7893C128.495 17.3679 128.391 16.8743 128.391 16.3085C128.391 15.7498 128.495 15.2574 128.703 14.8312C128.914 14.4051 129.207 14.0725 129.584 13.8334C129.963 13.5943 130.405 13.4747 130.912 13.4747C131.22 13.4747 131.518 13.5256 131.807 13.6274C132.096 13.7292 132.355 13.889 132.585 14.1068C132.814 14.3246 132.995 14.6075 133.128 14.9555C133.26 15.3012 133.327 15.7214 133.327 16.2162V16.5926H128.991V15.7971H132.286C132.286 15.5178 132.229 15.2704 132.116 15.055C132.002 14.8372 131.842 14.6655 131.636 14.54C131.433 14.4146 131.194 14.3518 130.919 14.3518C130.621 14.3518 130.36 14.4252 130.138 14.572C129.918 14.7164 129.747 14.9058 129.626 15.1402C129.508 15.3722 129.449 15.6243 129.449 15.8966V16.518C129.449 16.8826 129.513 17.1927 129.641 17.4484C129.771 17.7041 129.952 17.8994 130.184 18.0344C130.416 18.1669 130.687 18.2332 130.997 18.2332C131.198 18.2332 131.382 18.2048 131.548 18.148C131.713 18.0888 131.857 18.0012 131.977 17.8852C132.098 17.7692 132.19 17.626 132.254 17.4555L133.259 17.6366C133.179 17.9326 133.034 18.1918 132.826 18.4143C132.62 18.6345 132.361 18.8061 132.048 18.9292C131.738 19.05 131.384 19.1104 130.987 19.1104Z" fill="white"/>
</g>
</svg>
