<svg width="177" height="63" viewBox="0 0 177 63" fill="none" xmlns="http://www.w3.org/2000/svg">
<path d="M45.654 49.2191C43.6817 52.3749 42.1827 54.1105 41.1571 54.1105C39.9737 54.1105 40.3681 52.3748 40.6048 51.4281L44.7862 33.4402C46.6797 25.2353 45.1018 19.7127 39.0269 19.7127C29.9541 19.7127 23.8793 28.391 19.4612 39.7518L27.824 0.304688H27.1928L9.04715 2.8293L8.88936 3.77603C11.5718 4.80166 12.3607 6.22175 11.3351 11.0343L0.605469 61.9999H14.8064C18.6722 43.8543 27.1928 28.5488 30.2697 28.5488C31.532 28.5488 30.9008 30.9945 30.5064 32.8091L26.325 51.5859C25.2993 56.1618 24.9838 62.9467 31.7687 62.9467C37.9224 62.9467 42.8139 58.0552 46.9164 50.008L45.654 49.2191Z" fill="#FFFFA5"/>
<path d="M86.7345 54.1105C85.63 54.1105 86.0244 52.4537 86.2611 51.4281L92.9671 20.186H91.3893L85.5511 23.184C83.4998 20.975 80.0285 19.7127 75.3737 19.7127C59.1215 19.7127 48.7075 35.0181 48.7075 49.5347C48.7075 57.9763 52.3366 62.9467 58.0959 62.9467C63.6185 62.9467 68.2732 59.1598 71.9024 51.9804C70.9557 56.714 71.0346 62.9467 77.8195 62.9467C83.8154 62.9467 88.4702 58.0552 92.5727 50.008L91.3104 49.2191C89.5747 52.0593 87.839 54.1105 86.7345 54.1105ZM65.3542 55.3728C63.9341 55.3728 62.9084 53.6372 62.9084 48.8246C62.9084 37.4639 68.8255 21.7639 73.5592 21.7639C75.4526 21.7639 76.3205 23.6574 76.3205 26.9709C76.3205 28.7855 76.0838 30.9156 75.6893 33.0458C73.6381 44.1699 68.5888 55.3728 65.3542 55.3728Z" fill="#FFFFA5"/>
<path d="M129.184 19.7127C121.216 19.7127 116.797 28.7855 113.247 40.304L115.22 31.0734C116.245 26.3398 117.034 19.7127 110.013 19.7127C104.017 19.7127 99.0463 24.7619 96.0483 31.389L97.3106 32.1779C98.7307 29.9689 99.9141 28.5488 100.703 28.5488C101.729 28.5488 101.334 29.9689 101.098 31.2312L94.6282 61.9999H108.829C112.616 44.3276 116.482 32.4935 124.214 32.4935C125.16 32.4935 125.949 32.6513 126.896 33.1247H127.369L132.971 20.3438C131.63 19.8704 130.367 19.7127 129.184 19.7127Z" fill="#FFFFA5"/>
<path d="M165.706 54.1105C164.601 54.1105 164.996 52.4537 165.232 51.4281L176.12 0.304688H175.489L157.343 2.8293L157.185 3.77603C159.868 4.80166 160.656 6.22175 159.631 11.0343L157.737 19.9493C156.712 19.7916 155.528 19.7127 154.345 19.7127C138.093 19.7127 127.679 35.0181 127.679 49.5347C127.679 57.9763 131.308 62.9467 137.067 62.9467C142.59 62.9467 147.244 59.1598 150.874 51.9804C149.927 56.714 150.006 62.9467 156.791 62.9467C162.787 62.9467 167.441 58.0552 171.544 50.008L170.282 49.2191C168.546 52.0593 166.81 54.1105 165.706 54.1105ZM144.325 55.3728C142.905 55.3728 141.88 53.6372 141.88 48.8246C141.88 37.4639 147.797 21.7639 152.53 21.7639C154.424 21.7639 155.292 23.6574 155.292 26.9709C155.292 28.7855 155.055 30.9156 154.661 33.0458C152.609 44.1699 147.56 55.3728 144.325 55.3728Z" fill="#FFFFA5"/>
</svg>
