<svg width="75" height="29" viewBox="0 0 75 29" fill="none" xmlns="http://www.w3.org/2000/svg">
<path d="M38.265 27.2895C38.2193 27.2895 38.128 27.2435 38.128 27.1975C38.0366 27.0597 38.0366 26.7494 38.0366 26.5196V22.9348H38.1737C37.6827 24.5089 37.1917 25.4051 36.2554 26.2094C35.1821 27.1056 33.7206 27.4618 32.4304 27.4618C30.6491 27.4618 28.925 27.3239 27.6576 26.0256C26.7784 25.1179 26.139 24.0608 26.139 21.2343L26.0933 17.9367C26.0933 16.8566 26.0477 12.0424 25.9106 11.4219C25.6823 10.4338 25.4197 10.0776 24.9744 9.81334C24.5747 9.6295 23.9467 9.58355 23.5928 9.54908V9.36523H32.3733C32.556 9.36523 32.6816 9.4112 32.6816 9.72143C32.6816 10.0776 32.6359 15.7077 32.6359 18.0286V22.4063C32.6359 23.7046 32.8186 24.7387 33.2639 25.2787C33.6635 25.7728 34.2458 26.0371 34.9538 26.0371C36.244 26.0371 37.7626 24.1987 38.0709 20.7977C38.2079 19.6717 37.9339 23.9114 37.9339 22.5212V14.214C37.9339 13.3178 37.9339 12.3296 37.8425 11.7092C37.7512 10.767 37.5342 10.181 36.9976 9.87079C36.598 9.68695 35.8786 9.60652 35.479 9.56056V9.37673H44.2138C44.4422 9.37673 44.5221 9.5146 44.5221 9.73291C44.5221 10.0891 44.4764 15.4893 44.4764 17.8218V21.9237C44.4764 22.728 44.5221 24.1642 44.6135 24.8766C44.7048 25.7268 44.9674 26.2209 45.4127 26.5311C45.858 26.7954 46.486 26.8414 46.9313 26.8873V27.1171C46.6459 27.1171 38.3563 27.2895 38.265 27.2895Z" fill="#262529"/>
<path d="M47.5361 27.0716V26.8878C47.8444 26.8418 48.244 26.8418 48.6094 26.7039C49.1917 26.4396 49.5914 26.1639 49.8996 25.0494C50.0823 24.337 50.128 22.4986 50.128 21.2003V6.79194C50.128 5.98765 50.0823 3.79308 49.991 3.06922C49.854 2.21897 49.637 1.86278 49.1917 1.54106C48.8378 1.27679 48.2098 1.23084 47.8101 1.18488V0.955078H56.4536C56.6363 0.955078 56.7162 1.047 56.7162 1.26531C56.7162 1.94321 56.6706 2.87389 56.6706 4.04586V21.1888C56.6706 22.4871 56.6706 24.3255 56.8989 25.0379C57.1615 26.1639 57.5726 26.4282 58.1892 26.6924C58.5431 26.8303 58.9884 26.8303 59.3081 26.8763V27.0601H47.5361V27.0716Z" fill="#262529"/>
<path d="M72.6557 24.1529C72.119 25.4972 70.1209 27.4735 67.175 27.4735C65.1654 27.4735 63.2929 26.9794 62.3566 26.0832C61.1577 24.9572 60.7923 23.5784 60.7923 21.8205C60.7923 20.9243 60.9293 11.8702 60.975 9.67567C60.2214 9.58375 59.0568 9.62971 58.3945 9.5378V9.13565C62.4936 8.29689 65.5651 5.51633 66.8667 0.943359H67.5747V8.82542H71.7194V9.72163H67.5747L67.392 22.5443C67.392 24.1529 67.7459 25.5892 69.7098 25.5892C70.8631 25.5892 71.8907 25.0032 72.473 24.0151L72.6557 24.1529Z" fill="#262529"/>
<path d="M3.91944 27.0713V4.97628C3.91944 2.57489 3.99937 1.27654 2.34375 1.27654V0.966309H13.3736V1.27654C11.6723 1.27654 11.444 2.14977 11.444 4.98777V21.6481L3.91944 27.0713Z" fill="#262529"/>
<path d="M22.8161 11.0659C22.8161 11.0429 22.8275 11.0199 22.8275 10.997C23.0673 8.61856 21.3431 6.50442 18.9796 6.26313C16.6161 6.02184 14.5151 7.75682 14.2753 10.1352C14.2639 10.2042 14.2639 10.2846 14.2639 10.3535C14.2639 10.365 14.2639 10.365 14.2639 10.3765C14.2639 10.388 14.2639 10.3995 14.2639 10.411C14.2525 10.5144 14.2639 10.6063 14.2639 10.7097C14.2639 10.7672 14.2639 10.8131 14.2753 10.8706C14.458 12.7779 16.6275 13.3524 17.6551 14.8001C17.7122 14.8805 17.7693 14.961 17.8149 15.0414C18.0776 15.4895 18.2717 16.4891 17.244 17.4658C17.2555 17.4773 17.2669 17.5002 17.2783 17.5117C20.384 15.8687 22.6448 13.5707 22.8161 11.0659Z" fill="#262529"/>
<path d="M22.1658 23.8888C22.1658 23.8888 21.8233 23.4637 17.3817 17.42C17.3702 17.4085 17.3588 17.3855 17.3474 17.374L11.4443 21.6368L15.4863 27.0715H26.0594V26.7268C25.0546 26.6464 24.1754 26.5659 22.1658 23.8888Z" fill="#262529"/>
</svg>
