<svg width="75" height="29" viewBox="0 0 75 29" fill="none" xmlns="http://www.w3.org/2000/svg">
<g clip-path="url(#clip0)">
<path d="M38.265 27.2895C38.2193 27.2895 38.128 27.2435 38.128 27.1975C38.0366 27.0597 38.0366 26.7494 38.0366 26.5196V22.9348H38.1737C37.6827 24.5089 37.1917 25.4051 36.2554 26.2094C35.1821 27.1056 33.7206 27.4618 32.4304 27.4618C30.6491 27.4618 28.925 27.3239 27.6576 26.0256C26.7784 25.1179 26.139 24.0608 26.139 21.2343L26.0933 17.9367C26.0933 16.8566 26.0477 12.0424 25.9106 11.4219C25.6823 10.4338 25.4197 10.0776 24.9744 9.81334C24.5747 9.6295 23.9467 9.58354 23.5928 9.54907V9.36523H32.3733C32.556 9.36523 32.6816 9.41119 32.6816 9.72142C32.6816 10.0776 32.6359 15.7077 32.6359 18.0286V22.4063C32.6359 23.7046 32.8186 24.7387 33.2639 25.2787C33.6635 25.7728 34.2458 26.0371 34.9538 26.0371C36.244 26.0371 37.7626 24.1987 38.0709 20.7977C38.2079 19.6717 37.9339 23.9114 37.9339 22.5212V14.214C37.9339 13.3178 37.9339 12.3296 37.8425 11.7092C37.7512 10.767 37.5342 10.181 36.9976 9.87079C36.598 9.68695 35.8786 9.60652 35.479 9.56056V9.37672H44.2138C44.4422 9.37672 44.5221 9.5146 44.5221 9.73291C44.5221 10.0891 44.4764 15.4893 44.4764 17.8218V21.9237C44.4764 22.728 44.5221 24.1642 44.6135 24.8766C44.7048 25.7268 44.9674 26.2209 45.4127 26.5311C45.858 26.7954 46.486 26.8414 46.9313 26.8873V27.1171C46.6459 27.1171 38.3563 27.2895 38.265 27.2895Z" fill="white"/>
<path d="M47.5365 27.0716V26.8878C47.8448 26.8418 48.2444 26.8418 48.6098 26.7039C49.1921 26.4396 49.5918 26.1639 49.9 25.0494C50.0827 24.337 50.1284 22.4986 50.1284 21.2003V6.79194C50.1284 5.98765 50.0827 3.79308 49.9914 3.06922C49.8544 2.21897 49.6374 1.86278 49.1921 1.54106C48.8382 1.27679 48.2102 1.23084 47.8105 1.18488V0.955078H56.454C56.6367 0.955078 56.7166 1.047 56.7166 1.26531C56.7166 1.94321 56.671 2.87389 56.671 4.04586V21.1888C56.671 22.4871 56.671 24.3255 56.8993 25.0379C57.1619 26.1639 57.573 26.4282 58.1896 26.6924C58.5435 26.8303 58.9888 26.8303 59.3085 26.8763V27.0601H47.5365V27.0716Z" fill="white"/>
<path d="M72.6562 24.1529C72.1195 25.4972 70.1214 27.4735 67.1755 27.4735C65.1659 27.4735 63.2934 26.9794 62.3571 26.0832C61.1582 24.9572 60.7928 23.5784 60.7928 21.8205C60.7928 20.9243 60.9298 11.8702 60.9755 9.67567C60.2219 9.58375 59.0573 9.62971 58.395 9.5378V9.13565C62.4941 8.29689 65.5656 5.51633 66.8672 0.943359H67.5752V8.82542H71.7199V9.72163H67.5752L67.3925 22.5443C67.3925 24.1529 67.7464 25.5892 69.7103 25.5892C70.8636 25.5892 71.8912 25.0032 72.4735 24.0151L72.6562 24.1529Z" fill="white"/>
<path d="M3.91944 27.0713V4.97628C3.91944 2.57489 3.99937 1.27654 2.34375 1.27654V0.966309H13.3736V1.27654C11.6723 1.27654 11.444 2.14977 11.444 4.98777V21.6481L3.91944 27.0713Z" fill="white"/>
<path d="M22.8164 11.0659C22.8164 11.0429 22.8278 11.0199 22.8278 10.997C23.0676 8.61856 21.3434 6.50442 18.9799 6.26313C16.6164 6.02184 14.5154 7.75682 14.2756 10.1352C14.2642 10.2042 14.2642 10.2846 14.2642 10.3535C14.2642 10.365 14.2642 10.365 14.2642 10.3765C14.2642 10.388 14.2642 10.3995 14.2642 10.411C14.2528 10.5144 14.2642 10.6063 14.2642 10.7097C14.2642 10.7672 14.2642 10.8131 14.2756 10.8706C14.4583 12.7779 16.6278 13.3524 17.6554 14.8001C17.7125 14.8805 17.7696 14.961 17.8152 15.0414C18.0779 15.4895 18.272 16.4891 17.2443 17.4658C17.2558 17.4773 17.2672 17.5002 17.2786 17.5117C20.3843 15.8687 22.6451 13.5707 22.8164 11.0659Z" fill="white"/>
<path d="M22.1655 23.8888C22.1655 23.8888 21.823 23.4637 17.3814 17.42C17.3699 17.4085 17.3585 17.3855 17.3471 17.374L11.444 21.6368L15.486 27.0715H26.0591V26.7268C25.0543 26.6464 24.1751 26.5659 22.1655 23.8888Z" fill="white"/>
</g>
<defs>
<clipPath id="clip0">
<rect width="70.3125" height="26.5301" fill="white" transform="translate(2.34375 0.943359)"/>
</clipPath>
</defs>
</svg>
